# xmcd
#
# Track frame offsets: 
#        150
#        9837
#        23045
#        35335
#        45615
#        56292
#        70060
#        80165
#        93190
#        119277
#        135300
#        148337
#        163030
#        177572
#        189837
#        205102
#        215812
#        224667
#
# Disc length: 3127 seconds
#
# Revision: 0
# Processed by: cddbd v1.5.2PL0 Copyright (c) Steve Scherf et al.
# Submitted via: ExactAudioCopy v0.99pb5
#
DISCID=fe0c3512
DTITLE=Various Artist - Country Girls
DYEAR=1994
DGENRE=Country
TTITLE0=Donna Fargo - Sticks and Stones
TTITLE1=Lynn Anderson - Rose Garden
TTITLE2=Sandy Posey - Single Girl
TTITLE3=Patsy Cline - Pick Me Up on Your Way Down
TTITLE4=Patsy Cline - Honky Tonk Merry Go Round
TTITLE5=Barbara Fairchild - Crazy Love
TTITLE6=Loretta Lynn - Out of my Head~Back In Bed
TTITLE7=Loretta Lynn - Let Your Love Flow
TTITLE8=Brenda Lee - Medley
TTITLE9=Brenda Lee - Comin' On Strong
TTITLE10=Kitty Wells - Makin' Believe
TTITLE11=Jeannie C Riley - Harper Valley PTA
TTITLE12=Loretta Lynn - Coal Miners Daughter
TTITLE13=Billie Jo Spears - Misty Blue
TTITLE14=Billie Jo Spears - Blanket on the Ground
TTITLE15=Donna Fargo - All That's Keepin' Me Alive
TTITLE16=Sandy Posey - Born a Woman
TTITLE17=Barbara Mandrell - Kaw-Liga
EXTD=
EXTT0=
EXTT1=
EXTT2=
EXTT3=
EXTT4=
EXTT5=
EXTT6=
EXTT7=
EXTT8=
EXTT9=
EXTT10=
EXTT11=
EXTT12=
EXTT13=
EXTT14=
EXTT15=
EXTT16=
EXTT17=
PLAYORDER=
